<svg width="1920" height="2445" viewBox="0 0 1920 2445" fill="none" xmlns="http://www.w3.org/2000/svg">
<path opacity="0.15" fill-rule="evenodd" clip-rule="evenodd" d="M1920 3058C2254.13 3058 2525 2787.13 2525 2453C2525 2118.87 2254.13 1848 1920 1848C1585.87 1848 1315 2118.87 1315 2453C1315 2787.13 1585.87 3058 1920 3058ZM1920.53 2815.58C2120.48 2815.58 2282.58 2653.48 2282.58 2453.52C2282.58 2253.57 2120.48 2091.47 1920.53 2091.47C1720.57 2091.47 1558.47 2253.57 1558.47 2453.52C1558.47 2653.48 1720.57 2815.58 1920.53 2815.58Z" fill="#5528FF"/>
<path opacity="0.4" fill-rule="evenodd" clip-rule="evenodd" d="M2279 830C2957.76 830 3508 279.758 3508 -399C3508 -1077.76 2957.76 -1628 2279 -1628C1600.24 -1628 1050 -1077.76 1050 -399C1050 279.758 1600.24 830 2279 830ZM2280.07 337.547C2686.26 337.547 3015.55 8.26099 3015.55 -397.934C3015.55 -804.129 2686.26 -1133.42 2280.07 -1133.42C1873.87 -1133.42 1544.58 -804.129 1544.58 -397.934C1544.58 8.26099 1873.87 337.547 2280.07 337.547Z" fill="#5528FF"/>
<path opacity="0.4" fill-rule="evenodd" clip-rule="evenodd" d="M-126.5 485C148.262 485 371 262.262 371 -12.5C371 -287.262 148.262 -510 -126.5 -510C-401.262 -510 -624 -287.262 -624 -12.5C-624 262.262 -401.262 485 -126.5 485ZM-126.068 285.655C38.3596 285.655 171.655 152.36 171.655 -12.0685C171.655 -176.497 38.3596 -309.792 -126.068 -309.792C-290.497 -309.792 -423.792 -176.497 -423.792 -12.0685C-423.792 152.36 -290.497 285.655 -126.068 285.655Z" fill="#5528FF"/>
<path opacity="0.4" fill-rule="evenodd" clip-rule="evenodd" d="M-47.5 2722.37C172.033 2722.37 350 2544.4 350 2324.87C350 2105.34 172.033 1927.37 -47.5 1927.37C-267.033 1927.37 -445 2105.34 -445 2324.87C-445 2544.4 -267.033 2722.37 -47.5 2722.37ZM-47.1553 2563.1C84.2219 2563.1 190.724 2456.59 190.724 2325.22C190.724 2193.84 84.2219 2087.34 -47.1553 2087.34C-178.532 2087.34 -285.035 2193.84 -285.035 2325.22C-285.035 2456.59 -178.532 2563.1 -47.1553 2563.1Z" fill="#5528FF"/>
<path opacity="0.1" fill-rule="evenodd" clip-rule="evenodd" d="M2265.86 1757C2599.99 1757 2870.86 1486.13 2870.86 1152C2870.86 817.868 2599.99 547 2265.86 547C1931.73 547 1660.86 817.868 1660.86 1152C1660.86 1486.13 1931.73 1757 2265.86 1757ZM2266.38 1514.58C2466.34 1514.58 2628.44 1352.48 2628.44 1152.52C2628.44 952.567 2466.34 790.469 2266.38 790.469C2066.43 790.469 1904.33 952.567 1904.33 1152.52C1904.33 1352.48 2066.43 1514.58 2266.38 1514.58Z" fill="#5528FF"/>
</svg>
